<?xml version="1.0" encoding="UTF-8" standalone="no"?>
<!-- Generator: Adobe Illustrator 16.0.0, SVG Export Plug-In . SVG Version: 6.00 Build 0)  -->

<svg
   version="1.1"
   id="Capa_1"
   x="0px"
   y="0px"
   width="612px"
   height="612px"
   viewBox="0 0 612 612"
   style="enable-background:new 0 0 612 612;"
   xml:space="preserve"
   sodipodi:docname="menu.svg"
   inkscape:version="1.1 (c68e22c387, 2021-05-23)"
   xmlns:inkscape="http://www.inkscape.org/namespaces/inkscape"
   xmlns:sodipodi="http://sodipodi.sourceforge.net/DTD/sodipodi-0.dtd"
   xmlns="http://www.w3.org/2000/svg"
   xmlns:svg="http://www.w3.org/2000/svg"><defs
   id="defs42" /><sodipodi:namedview
   id="namedview40"
   pagecolor="#ffffff"
   bordercolor="#666666"
   borderopacity="1.0"
   inkscape:pageshadow="2"
   inkscape:pageopacity="0.0"
   inkscape:pagecheckerboard="0"
   showgrid="false"
   inkscape:zoom="1.4264706"
   inkscape:cx="306"
   inkscape:cy="306"
   inkscape:window-width="2560"
   inkscape:window-height="1377"
   inkscape:window-x="-8"
   inkscape:window-y="-8"
   inkscape:window-maximized="1"
   inkscape:current-layer="Capa_1" />
<g
   id="g7"
   style="fill:#fffffb;fill-opacity:1">
	<g
   id="_x33__1_"
   style="fill:#fffffb;fill-opacity:1">
		<g
   id="g4"
   style="fill:#fffffb;fill-opacity:1">
			<path
   d="M61.2,122.4h489.6c33.782,0,61.2-27.387,61.2-61.2S584.613,0,550.8,0H61.2C27.387,0,0,27.387,0,61.2     S27.387,122.4,61.2,122.4z M550.8,244.8H61.2C27.387,244.8,0,272.187,0,306c0,33.812,27.387,61.2,61.2,61.2h489.6     c33.782,0,61.2-27.388,61.2-61.2C612,272.187,584.613,244.8,550.8,244.8z M550.8,489.6H61.2C27.387,489.6,0,516.987,0,550.8     C0,584.613,27.387,612,61.2,612h489.6c33.782,0,61.2-27.387,61.2-61.2C612,516.987,584.613,489.6,550.8,489.6z"
   id="path2"
   style="fill:#fffffb;fill-opacity:1" />
		</g>
	</g>
</g>
<g
   id="g9">
</g>
<g
   id="g11">
</g>
<g
   id="g13">
</g>
<g
   id="g15">
</g>
<g
   id="g17">
</g>
<g
   id="g19">
</g>
<g
   id="g21">
</g>
<g
   id="g23">
</g>
<g
   id="g25">
</g>
<g
   id="g27">
</g>
<g
   id="g29">
</g>
<g
   id="g31">
</g>
<g
   id="g33">
</g>
<g
   id="g35">
</g>
<g
   id="g37">
</g>
</svg>
